<svg id="Layer_1" data-name="Layer 1" xmlns="http://www.w3.org/2000/svg" viewBox="0 0 40 40"><defs><style>.cls-1{fill:#fff;}</style></defs><path class="cls-1" d="M129.74,146.81a20,20,0,1,0,20,20A20,20,0,0,0,129.74,146.81Zm-5.52,30h-4.15V163.46h4.15Zm-2.08-15.17a2.42,2.42,0,1,1,2.41-2.43A2.43,2.43,0,0,1,122.14,161.64Zm17.6,15.17H135.6v-6.5c0-1.55,0-3.53-2.15-3.53S131,168.46,131,170.2v6.61h-4.14V163.46h4v1.82h.06a4.37,4.37,0,0,1,3.93-2.16c4.19,0,5,2.77,5,6.36Z" transform="translate(-109.74 -146.81)"/></svg>