<svg id="Layer_1" data-name="Layer 1" xmlns="http://www.w3.org/2000/svg" viewBox="0 0 40 40"><defs><style>.cls-1{fill:#fff;}</style></defs><polygon class="cls-1" points="17.95 22.99 23.18 20.01 17.95 17.04 17.95 22.99"/><path class="cls-1" d="M130.66,147.52a20,20,0,1,0,20,20A20,20,0,0,0,130.66,147.52Zm9.58,24.86a2.47,2.47,0,0,1-1.77,1.75c-1.56.42-7.81.42-7.81.42s-6.26,0-7.82-.42a2.47,2.47,0,0,1-1.77-1.75,28.83,28.83,0,0,1,0-9.69,2.52,2.52,0,0,1,1.77-1.78c1.56-.42,7.82-.42,7.82-.42s6.25,0,7.81.42a2.52,2.52,0,0,1,1.77,1.78,28.16,28.16,0,0,1,0,9.69Z" transform="translate(-110.66 -147.52)"/></svg>